<?xml version="1.0" encoding="UTF-8" standalone="no"?>
<!-- Created with Inkscape (http://www.inkscape.org/) -->

<svg
   width="512"
   height="512"
   viewBox="0 0 135.46666 135.46667"
   version="1.1"
   id="svg5"
   inkscape:version="1.2.2 (732a01da63, 2022-12-09)"
   sodipodi:docname="favicon-2.svg"
   inkscape:export-filename="favicon.png"
   inkscape:export-xdpi="6.000001"
   inkscape:export-ydpi="6.000001"
   xmlns:inkscape="http://www.inkscape.org/namespaces/inkscape"
   xmlns:sodipodi="http://sodipodi.sourceforge.net/DTD/sodipodi-0.dtd"
   xmlns:xlink="http://www.w3.org/1999/xlink"
   xmlns="http://www.w3.org/2000/svg"
   xmlns:svg="http://www.w3.org/2000/svg">
  <sodipodi:namedview
     id="namedview7"
     pagecolor="#ffffff"
     bordercolor="#000000"
     borderopacity="0.25"
     inkscape:showpageshadow="2"
     inkscape:pageopacity="0.0"
     inkscape:pagecheckerboard="true"
     inkscape:deskcolor="#d1d1d1"
     inkscape:document-units="mm"
     showgrid="false"
     inkscape:zoom="0.1767767"
     inkscape:cx="-1747.968"
     inkscape:cy="2477.7022"
     inkscape:window-width="2560"
     inkscape:window-height="1537"
     inkscape:window-x="-8"
     inkscape:window-y="-8"
     inkscape:window-maximized="1"
     inkscape:current-layer="layer1" />
  <defs
     id="defs2">
    <linearGradient
       id="linearGradient3031">
      <stop
         style="stop-color:#ff0000;stop-opacity:1;"
         offset="0"
         id="stop5069" />
      <stop
         style="stop-color:#ff9000;stop-opacity:1;"
         offset="0.17091838"
         id="stop5071" />
      <stop
         style="stop-color:#f3ff00;stop-opacity:1;"
         offset="0.33418369"
         id="stop5073" />
      <stop
         style="stop-color:#1cff00;stop-opacity:1;"
         offset="0.5"
         id="stop5075" />
      <stop
         style="stop-color:#00f4ff;stop-opacity:1;"
         offset="0.65816331"
         id="stop5077" />
      <stop
         style="stop-color:#000fff;stop-opacity:1;"
         offset="0.82397962"
         id="stop5079" />
      <stop
         style="stop-color:#cf00ff;stop-opacity:1;"
         offset="1"
         id="stop5081" />
    </linearGradient>
    <linearGradient
       id="linearGradient3053"
       inkscape:swatch="solid">
      <stop
         style="stop-color:#000000;stop-opacity:1;"
         offset="0"
         id="stop3051" />
    </linearGradient>
    <linearGradient
       id="linearGradient3031-1">
      <stop
         style="stop-color:#ff0000;stop-opacity:1;"
         offset="0"
         id="stop5055" />
      <stop
         style="stop-color:#ff9000;stop-opacity:1;"
         offset="0.17857143"
         id="stop5063" />
      <stop
         style="stop-color:#f3ff00;stop-opacity:1;"
         offset="0.34693879"
         id="stop5067" />
      <stop
         style="stop-color:#3cff00;stop-opacity:1;"
         offset="0.51785713"
         id="stop5061" />
      <stop
         style="stop-color:#00f4ff;stop-opacity:1;"
         offset="0.6836735"
         id="stop5057" />
      <stop
         style="stop-color:#000fff;stop-opacity:1;"
         offset="0.83673471"
         id="stop5059" />
      <stop
         style="stop-color:#cf00ff;stop-opacity:1;"
         offset="1"
         id="stop5065" />
    </linearGradient>
    <clipPath
       clipPathUnits="userSpaceOnUse"
       id="clipPath2158">
      <path
         style="display:inline;fill:#666666;stroke:none;stroke-width:0.264583"
         d="m -156.79144,113.54217 c -4.05188,-0.37826 -11.62853,-1.71674 -12.39326,-2.18937 -0.20041,-0.12386 0.44914,-3.08933 2.06552,-9.42993 3.20713,-12.580663 6.35269,-23.422957 9.84769,-33.943548 2.73912,-8.245242 2.96635,-8.809608 3.49087,-8.670483 0.30858,0.08185 2.34897,0.279482 4.5342,0.439193 14.91754,1.090268 28.43141,-4.046651 38.76632,-14.735934 4.38203,-4.53229 7.28086,-8.72651 10.21527,-14.78015 3.23106,-6.66562 4.452911,-11.50356 4.457049,-17.64771 0.0021,-2.28467 0.0814,-4.0706097 0.17749,-3.9687504 0.613532,0.6504517 3.49131,5.7613494 4.884711,8.6751604 4.85361,10.14969 6.961849,20.88689 6.408521,32.63836 -1.064072,22.598158 -14.004682,43.471672 -34.089811,54.987662 -7.07778,4.05811 -15.40101,6.89279 -23.94478,8.15498 -2.58709,0.3822 -12.05621,0.69118 -14.41979,0.47052 z"
         id="path2160" />
    </clipPath>
    <linearGradient
       inkscape:collect="always"
       xlink:href="#linearGradient3031"
       id="linearGradient5193"
       x1="183.36888"
       y1="496.59189"
       x2="457.48065"
       y2="111.2328"
       gradientUnits="userSpaceOnUse"
       spreadMethod="reflect" />
  </defs>
  <g
     inkscape:label="Слой 1"
     inkscape:groupmode="layer"
     id="layer1"
     style="display:inline">
    <ellipse
       style="fill:#ffffff;stroke:#000000;stroke-width:1.05833;stroke-dasharray:none;stroke-opacity:1"
       id="path169"
       cy="67.73333"
       cx="67.73333"
       rx="67.20826"
       ry="67.208275" />
    <path
       style="display:none;fill:none;stroke:#000000;stroke-width:1.05833;stroke-dasharray:none;stroke-opacity:1"
       d="M 31.096946,11.35031 C 15.944956,29.766438 19.496614,72.383415 60.227403,80.443869 110.59433,90.411275 129.67106,36.583775 120.34974,27.367797 113.91126,21.002077 78.509768,1.3946486 48.410889,132.24152"
       id="path1071"
       sodipodi:nodetypes="cssc" />
    <path
       id="path2715"
       style="fill:#000000;stroke:#000000;stroke-width:1.05833333;stroke-dasharray:none;stroke-opacity:1"
       d="m 28.173992,13.586767 c -0.388459,0.0548 -0.683252,0.355985 -0.994426,0.572505 -1.703258,1.329869 -3.318484,2.768461 -4.919114,4.218935 -3.413217,3.101992 -6.47992,6.581934 -9.165251,10.330389 C 8.7092299,34.829686 5.4163174,41.716782 3.3035798,48.940518 2.248581,52.550014 1.4663354,56.240507 0.97155565,59.968336 0.77079553,61.925387 0.7352667,63.894945 0.7010343,65.860638 c -0.029636,2.888316 -0.0116231,5.780225 0.18144786,8.663101 0.10728249,1.49025 0.37852504,2.962339 0.62854794,4.433525 1.0261586,5.762916 2.7399329,11.410699 5.1998329,16.725948 3.486019,7.580108 8.355301,14.532108 14.36235,20.328138 5.349953,5.17657 11.587874,9.41988 18.331426,12.56596 1.737921,0.80711 3.482004,1.60922 5.281154,2.27174 0.880235,0.30121 1.747642,0.66771 2.667905,0.82922 0.447562,0.0845 0.976646,-0.0469 1.209747,-0.46923 0.25469,-0.46773 0.279185,-1.01661 0.41806,-1.5232 0.748152,-3.25848 1.564015,-6.49677 2.378075,-9.73027 1.276519,-5.03178 2.568551,-10.07305 3.992597,-15.05758 1.772367,-6.194867 3.627773,-12.366797 5.623946,-18.493446 0.51744,-1.576102 1.052444,-3.146885 1.630907,-4.701521 0.122108,-0.365885 -0.0651,-0.808964 -0.444418,-0.926042 -0.371133,-0.125 -0.773485,-0.04944 -1.151866,-0.147278 -0.993447,-0.177924 -1.974903,-0.422944 -2.938039,-0.667416 -2.129509,-0.554969 -4.231664,-1.146032 -6.31418,-1.873314 C 48.90445,77.05132 46.144328,75.750914 43.537393,74.19237 43.105263,73.933605 42.632354,73.638682 42.191738,73.354178 40.447245,72.220832 38.781661,70.965176 37.21995,69.590583 36.86951,69.28146 36.482506,68.928604 36.126726,68.592845 34.118843,66.694332 32.305593,64.59113 30.718021,62.329528 30.460767,61.95882 30.173943,61.540268 29.917136,61.142805 27.3925,57.268546 25.501846,52.982756 24.35161,48.503419 c -0.232995,-0.890974 -0.441949,-1.828091 -0.615591,-2.707765 -0.283873,-1.458023 -0.501969,-2.965156 -0.644405,-4.42092 -0.430273,-4.433893 -0.243967,-8.929833 0.585493,-13.307713 0.06107,-0.304644 0.132307,-0.676407 0.20475,-1.005271 0.778193,-3.657361 2.037001,-7.215562 3.781034,-10.524969 0.367546,-0.741194 0.766683,-1.470504 1.070755,-2.240496 0.04639,-0.171381 0.02593,-0.354898 0.04496,-0.531234 -0.199829,-0.05405 -0.393453,-0.210385 -0.604612,-0.178284 z" />
    <path
       id="path2718"
       style="fill:#ff00ff;stroke:#000000;stroke-width:1.05833333;stroke-dasharray:none;stroke-opacity:1"
       d="m 107.54847,22.568648 c -3.5185,0.107777 -6.9442,1.2451 -10.004555,2.946073 -1.861161,1.040875 -3.622842,2.26496 -5.234675,3.6617 -1.999475,1.775048 -3.828119,3.73348 -5.590617,5.741263 -1.59775,1.832708 -3.115167,3.737565 -4.484886,5.747549 -3.462141,5.009343 -6.432145,10.342567 -9.132676,15.795291 -3.463329,7.013051 -6.443961,14.255747 -9.120552,21.602536 -0.257249,0.721781 -0.542735,1.434819 -0.760595,2.169768 0.01169,0.328983 0.269362,0.585933 0.573797,0.67582 0.777139,0.249071 1.600459,0.299577 2.40739,0.386758 6.092002,0.526687 12.291431,0.309533 18.254136,-1.119439 5.011124,-1.183963 9.803725,-3.243294 14.155938,-5.988884 1.513925,-0.953521 2.993825,-1.967997 4.356265,-3.13069 2.30053,-1.930863 4.48479,-4.001066 6.54157,-6.18963 1.75448,-1.870454 3.29169,-3.933561 4.71761,-6.061567 2.8914,-4.372687 5.21723,-9.13914 6.71756,-14.1677 0.90793,-3.065809 1.48818,-6.243849 1.52175,-9.447281 0.0244,-1.782426 -0.0317,-3.615899 -0.67075,-5.302041 -0.52867,-1.437825 -1.57221,-2.626455 -2.77691,-3.546402 -2.6212,-2.020081 -5.78844,-3.35702 -9.08984,-3.687756 -0.79029,-0.08147 -1.58586,-0.108521 -2.37996,-0.08537 z" />
    <path
       style="fill:url(#linearGradient5193);stroke:#000000;stroke-width:2.00000003;stroke-dasharray:none;stroke-opacity:1;fill-opacity:1;fill-rule:nonzero"
       d="m 229.79081,506.58774 c -10.84364,-1.19648 -30.29835,-4.86368 -38.8048,-7.31466 l -5.73735,-1.65311 10.99232,-43.39942 c 12.17921,-48.08549 21.43691,-80.57705 34.2791,-120.30868 l 8.55487,-26.46738 4.60561,1.1577 c 2.53308,0.63673 15.1984,1.15767 28.14515,1.15765 19.35709,-4e-5 25.90929,-0.43406 36.87683,-2.44275 36.79656,-6.73926 67.07722,-22.51524 95.33889,-49.6708 22.19981,-21.33097 37.90094,-44.15497 48.90246,-71.0872 9.93212,-24.31426 14.53986,-52.49309 11.05516,-67.60813 -0.62282,-2.70154 -0.9492,-5.0951 -0.72529,-5.31902 0.22393,-0.22392 2.75025,3.2917 5.61407,7.8125 52.84113,83.41466 51.60615,191.36489 -3.131,273.68366 -39.09563,58.79559 -98.78544,97.36862 -169.27064,109.38689 -15.56018,2.65313 -51.35388,3.76552 -66.69538,2.07275 z"
       id="path2734"
       transform="scale(0.26458333)" />
    <path
       style="fill:#000000;fill-opacity:0;stroke:none;stroke-width:4;stroke-dasharray:none;stroke-opacity:1"
       d="m 233.71407,504.77872 c -15.18761,-1.30134 -45.3977,-7.70479 -45.3977,-9.62267 0,-1.64815 16.93059,-67.82543 22.5797,-88.25818 5.92738,-21.43926 9.40058,-33.01992 20.17095,-67.25584 l 8.99223,-28.58374 31.57626,-0.0136 c 30.75343,-0.0132 31.92561,-0.0964 44.9828,-3.19164 7.37358,-1.74794 16.95754,-4.43215 21.29768,-5.9649 12.7318,-4.49636 31.74602,-14.41516 43.17919,-22.52452 12.75738,-9.04859 35.72581,-30.99698 45.47099,-43.45157 23.57839,-30.13379 38.24996,-66.48918 40.46352,-100.26646 0.40826,-6.22976 1.12651,-10.92501 1.59611,-10.43388 1.81198,1.89501 11.982,21.56899 16.39621,31.71855 8.73939,20.09444 15.06722,42.9059 18.5011,66.69538 2.42507,16.80051 1.7655,54.19031 -1.27538,72.30003 -17.45133,103.92988 -96.28921,185.25083 -198.7666,205.02692 -18.10699,3.49429 -51.96758,5.35123 -69.76706,3.82608 z"
       id="path5185"
       transform="scale(0.26458333)" />
  </g>
  <g
     inkscape:groupmode="layer"
     id="layer2"
     inkscape:label="Слой 2"
     style="display:inline" />
</svg>
